<?xml version="1.0" encoding="UTF-8" standalone="no"?>
<svg width="29px" height="24px" viewBox="0 0 29 24" version="1.1" xmlns="http://www.w3.org/2000/svg" xmlns:xlink="http://www.w3.org/1999/xlink">
    <defs></defs>
    <g id="Web-Assets" stroke="none" stroke-width="1" fill="none" fill-rule="evenodd">
        <g id="Desktop" transform="translate(-470.000000, -191.000000)" fill="#169483">
            <g id="Twitter-+-Rectangle-3" transform="translate(470.000000, 191.000000)">
                <path d="M28.2001442,0.443689725 C27.0495287,1.13729134 25.7781219,1.64172888 24.4192188,1.91163372 C23.3367421,0.735125437 21.7896831,0 20.0769231,0 C16.793875,0 14.1294956,2.71288969 14.1294956,6.05863317 C14.1294956,6.53385025 14.1805997,6.99445708 14.2828078,7.43814681 C9.33810376,7.18515908 4.95476998,4.77600846 2.01860999,1.10576399 C1.50602088,2.00390888 1.21333405,3.04584922 1.21333405,4.15545801 C1.21333405,6.25625581 2.26328999,8.11098651 3.86067872,9.19752651 C2.88660454,9.16830605 1.96750594,8.89301849 1.1637786,8.44240813 L1.1637786,8.51622825 C1.1637786,11.4528852 3.21490935,13.9027907 5.9389101,14.4572106 C5.44025846,14.5994681 4.91373188,14.6709814 4.37094492,14.6709814 C3.98766454,14.6709814 3.61367581,14.6340713 3.25130163,14.563327 C4.00857074,16.9694018 6.2044963,18.7218609 8.80847996,18.7687674 C6.77283529,20.3943481 4.20601821,21.3632373 1.41929885,21.3632373 C0.939230502,21.3632373 0.464582276,21.3355548 0,21.2801897 C2.6326329,22.9965076 5.76159453,24 9.12052439,24 C20.0653085,24 26.0483539,14.7694082 26.0483539,6.76223126 C26.0483539,6.4984781 26.0437081,6.2354939 26.0336422,5.97712345 C27.1958722,5.12280927 28.2055643,4.05626222 29,2.84130595 C27.934558,3.3226747 26.7870398,3.64871359 25.5837717,3.79481593 C26.8125918,3.04584922 27.7556938,1.8585755 28.2001442,0.443689725" id="Twitter"></path>
            </g>
        </g>
    </g>
</svg>