<?xml version="1.0" encoding="UTF-8"?>
<svg width="32px" height="32px" viewBox="0 0 32 32" version="1.1" xmlns="http://www.w3.org/2000/svg" xmlns:xlink="http://www.w3.org/1999/xlink">
    <!-- Generator: Sketch 42 (36781) - http://www.bohemiancoding.com/sketch -->
    <title>twitter</title>
    <desc>Created with Sketch.</desc>
    <defs></defs>
    <g id="Web-Assets" stroke="none" stroke-width="1" fill="none" fill-rule="evenodd">
        <g id="twitter">
            <g>
                <rect id="Rectangle" x="0" y="0" width="32" height="32"></rect>
                <path d="M29.2001442,4.44368972 C28.0495287,5.13729134 26.7781219,5.64172888 25.4192188,5.91163372 C24.3367421,4.73512544 22.7896831,4 21.0769231,4 C17.793875,4 15.1294956,6.71288969 15.1294956,10.0586332 C15.1294956,10.5338502 15.1805997,10.9944571 15.2828078,11.4381468 C10.3381038,11.1851591 5.95476998,8.77600846 3.01860999,5.10576399 C2.50602088,6.00390888 2.21333405,7.04584922 2.21333405,8.15545801 C2.21333405,10.2562558 3.26328999,12.1109865 4.86067872,13.1975265 C3.88660454,13.168306 2.96750594,12.8930185 2.1637786,12.4424081 L2.1637786,12.5162283 C2.1637786,15.4528852 4.21490935,17.9027907 6.9389101,18.4572106 C6.44025846,18.5994681 5.91373188,18.6709814 5.37094492,18.6709814 C4.98766454,18.6709814 4.61367581,18.6340713 4.25130163,18.563327 C5.00857074,20.9694018 7.2044963,22.7218609 9.80847996,22.7687674 C7.77283529,24.3943481 5.20601821,25.3632373 2.41929885,25.3632373 C1.9392305,25.3632373 1.46458228,25.3355548 1,25.2801897 C3.6326329,26.9965076 6.76159453,28 10.1205244,28 C21.0653085,28 27.0483539,18.7694082 27.0483539,10.7622313 C27.0483539,10.4984781 27.0437081,10.2354939 27.0336422,9.97712345 C28.1958722,9.12280927 29.2055643,8.05626222 30,6.84130595 C28.934558,7.3226747 27.7870398,7.64871359 26.5837717,7.79481593 C27.8125918,7.04584922 28.7556938,5.8585755 29.2001442,4.44368972" fill="#169483"></path>
            </g>
        </g>
    </g>
</svg>